<svg width="29" height="30" viewBox="0 0 29 30" fill="none" xmlns="http://www.w3.org/2000/svg">
<path d="M14.5365 29.3429C22.5249 29.3429 29.0008 22.9047 29.0008 14.9628C29.0008 7.0209 22.5249 0.582705 14.5365 0.582705C6.54805 0.582705 0.0721512 7.0209 0.0721512 14.9628C0.0721512 22.9047 6.54799 29.3429 14.5365 29.3429ZM9.60729 5.03276C9.98062 4.60376 10.6331 4.55688 11.0646 4.92809C11.0749 4.93694 11.085 4.94603 11.0949 4.95524L21.4266 14.1996C21.8506 14.5793 21.8846 15.2288 21.5028 15.6502C21.4787 15.6768 21.4533 15.702 21.4266 15.7259L11.0949 24.9703C10.6785 25.3581 10.0247 25.3369 9.63459 24.9229C9.24449 24.5089 9.2658 23.8589 9.68224 23.4711C9.69217 23.4618 9.70227 23.4528 9.71256 23.444L19.1857 14.9628L9.71263 6.48164C9.28106 6.11042 9.23396 5.46175 9.60729 5.03276Z" fill="#04A486"/>
</svg>